<?xml version="1.0" encoding="UTF-8" standalone="no"?>
<!-- Created with Inkscape (http://www.inkscape.org/) -->

<svg
   xmlns:dc="http://purl.org/dc/elements/1.1/"
   xmlns:cc="http://creativecommons.org/ns#"
   xmlns:rdf="http://www.w3.org/1999/02/22-rdf-syntax-ns#"
   xmlns:svg="http://www.w3.org/2000/svg"
   xmlns="http://www.w3.org/2000/svg"
   xmlns:sodipodi="http://sodipodi.sourceforge.net/DTD/sodipodi-0.dtd"
   xmlns:inkscape="http://www.inkscape.org/namespaces/inkscape"
   width="100"
   height="100"
   id="svg2"
   version="1.1"
   inkscape:version="0.48.4 r9939"
   sodipodi:docname="approach6.pdf">
  <sodipodi:namedview
     id="base"
     pagecolor="#ffffff"
     bordercolor="#666666"
     borderopacity="1.0"
     inkscape:pageopacity="0.0"
     inkscape:pageshadow="2"
     inkscape:zoom="3.8113056"
     inkscape:cx="56.866193"
     inkscape:cy="49.841079"
     inkscape:document-units="px"
     inkscape:current-layer="layer1"
     showgrid="false"
     inkscape:window-width="1024"
     inkscape:window-height="1256"
     inkscape:window-x="0"
     inkscape:window-y="24"
     inkscape:window-maximized="1" />
  <defs
     id="defs4">
    <marker
       inkscape:stockid="Arrow2Mend"
       orient="auto"
       refY="0.0"
       refX="0.0"
       id="Arrow2Mend"
       style="overflow:visible;">
      <path
         id="path3808"
         style="fill-rule:evenodd;stroke-width:0.62500000;stroke-linejoin:round;"
         d="M 8.7185878,4.0337352 L -2.2072895,0.016013256 L 8.7185884,-4.0017078 C 6.9730900,-1.6296469 6.9831476,1.6157441 8.7185878,4.0337352 z "
         transform="scale(0.6) rotate(180) translate(0,0)" />
    </marker>
    <marker
       inkscape:stockid="Arrow2Mend"
       orient="auto"
       refY="0"
       refX="0"
       id="Arrow2Mend-4"
       style="overflow:visible">
      <path
         inkscape:connector-curvature="0"
         id="path3808-8"
         style="fill-rule:evenodd;stroke-width:0.625;stroke-linejoin:round"
         d="M 8.7185878,4.0337352 -2.2072895,0.01601326 8.7185884,-4.0017078 c -1.7454984,2.3720609 -1.7354408,5.6174519 -6e-7,8.035443 z"
         transform="scale(-0.6,-0.6)" />
    </marker>
    <marker
       inkscape:stockid="Arrow2MendP"
       orient="auto"
       refY="0.0"
       refX="0.0"
       id="Arrow2MendP"
       style="overflow:visible;">
      <path
         id="path5097"
         style="stroke-linejoin:round;stroke:#0000f9;stroke-width:0.62500000;fill:#0000f9;fill-rule:evenodd"
         d="M 8.7185878,4.0337352 L -2.2072895,0.016013256 L 8.7185884,-4.0017078 C 6.9730900,-1.6296469 6.9831476,1.6157441 8.7185878,4.0337352 z "
         transform="scale(0.6) rotate(180) translate(0,0)" />
    </marker>
    <marker
       inkscape:stockid="Arrow2Mend5"
       orient="auto"
       refY="0.0"
       refX="0.0"
       id="Arrow2Mend5"
       style="overflow:visible;">
      <path
         id="path5151"
         style="stroke-linejoin:round;stroke:#0621ff;stroke-width:0.62500000;fill:#0621ff;fill-rule:evenodd"
         d="M 8.7185878,4.0337352 L -2.2072895,0.016013256 L 8.7185884,-4.0017078 C 6.9730900,-1.6296469 6.9831476,1.6157441 8.7185878,4.0337352 z "
         transform="scale(0.6) rotate(180) translate(0,0)" />
    </marker>
  </defs>
  <metadata
     id="metadata7">
    <rdf:RDF>
      <cc:Work
         rdf:about="">
        <dc:format>image/svg+xml</dc:format>
        <dc:type
           rdf:resource="http://purl.org/dc/dcmitype/StillImage" />
        <dc:title></dc:title>
      </cc:Work>
    </rdf:RDF>
  </metadata>
  <g
     inkscape:label="Layer 1"
     inkscape:groupmode="layer"
     id="layer1"
     transform="translate(0,-952.36218)">
    <text
       xml:space="preserve"
       style="font-size:5px;font-style:normal;font-weight:normal;line-height:125%;letter-spacing:0px;word-spacing:0px;fill:#000000;fill-opacity:1;stroke:none;font-family:Sans"
       x="18.891165"
       y="21.811569"
       id="text4977"
       sodipodi:linespacing="125%"
       transform="translate(0,952.36218)"><tspan
         sodipodi:role="line"
         id="tspan4979"
         x="18.891165"
         y="21.811569" /></text>
    <rect
       style="fill:#fcfcfc;fill-opacity:1;fill-rule:nonzero;stroke:#000000;stroke-opacity:1"
       id="rect3755"
       width="34.137291"
       height="17.068645"
       x="6.3079777"
       y="38.033394"
       transform="translate(-4.0816327,956.25828)" />
    <path
       style="stroke-linejoin:miter;marker-end:url(#Arrow2MendP);stroke-opacity:1;fill-opacity:1;stroke:#0000f9;stroke-linecap:butt;stroke-width:1px;marker-mid:none;fill:none"
       d="M 6.3079777,37.476809 C 6.4297789,30.405497 11.21307,26.534719 16.883117,25.41744"
       id="path3775"
       inkscape:connector-curvature="0"
       transform="translate(-4.0816327,956.44381)"
       sodipodi:nodetypes="cc" />
    <g
       transform="translate(-9.3291784,958.80521)"
       style="font-size:10px;font-style:normal;font-weight:normal;line-height:125%;letter-spacing:0px;word-spacing:0px;fill:#000000;fill-opacity:1;stroke:none;font-family:Sans"
       id="text4981">
      <path
         d="m 23.719971,26.925507 -2.490235,3.891601 2.490235,0 0,-3.891601 m -0.258789,-0.859375 1.240234,0 0,4.750976 1.040039,0 0,0.820313 -1.040039,0 0,1.71875 -0.981445,0 0,-1.71875 -3.291016,0 0,-0.952149 3.032227,-4.61914"
         style=""
         id="path5216" />
      <path
         d="m 29.608643,29.318085 c -0.442712,4e-6 -0.794274,0.151371 -1.054688,0.454101 -0.257163,0.302738 -0.385744,0.717777 -0.385742,1.245117 -2e-6,0.524091 0.128579,0.939129 0.385742,1.245118 0.260414,0.302735 0.611976,0.454102 1.054688,0.454101 0.442704,1e-6 0.792639,-0.151366 1.049804,-0.454101 0.260412,-0.305989 0.390621,-0.721027 0.390625,-1.245118 -4e-6,-0.52734 -0.130213,-0.942379 -0.390625,-1.245117 -0.257165,-0.30273 -0.6071,-0.454097 -1.049804,-0.454101 m 1.958007,-3.090821 0,0.898438 c -0.2474,-0.117181 -0.498051,-0.206699 -0.751953,-0.268555 -0.250655,-0.06184 -0.499678,-0.09277 -0.74707,-0.09277 -0.651045,6e-6 -1.149091,0.219733 -1.494141,0.659179 -0.341798,0.439459 -0.537111,1.103521 -0.585937,1.992188 0.192055,-0.283199 0.43294,-0.49967 0.722656,-0.649414 0.289711,-0.15299 0.608721,-0.229487 0.957031,-0.229492 0.732418,5e-6 1.310217,0.222986 1.733399,0.668945 0.426427,0.442712 0.639642,1.046553 0.639648,1.811523 -6e-6,0.7487 -0.221359,1.349285 -0.664062,1.801758 -0.442713,0.452474 -1.031905,0.678711 -1.767578,0.678711 -0.843102,0 -1.487632,-0.322265 -1.933594,-0.966797 -0.445965,-0.647785 -0.668946,-1.585284 -0.668945,-2.8125 -1e-6,-1.152339 0.273436,-2.070306 0.820312,-2.753906 0.546873,-0.686842 1.280922,-1.030266 2.202148,-1.030273 0.247392,7e-6 0.496416,0.02442 0.747071,0.07324 0.253901,0.04884 0.517573,0.122077 0.791015,0.219726"
         style=""
         id="path5218" />
    </g>
    <g
       transform="matrix(1.4819103,0,0,1.4819103,-28.199762,1043.3384)"
       style="font-size:3px;font-style:normal;font-weight:normal;line-height:125%;letter-spacing:0px;word-spacing:0px;fill:#000000;fill-opacity:1;stroke:none;font-family:Sans"
       id="text5014">
      <path
         d="m 35.815929,-40.783913 c -0.214844,2e-6 -0.385743,0.08008 -0.512695,0.240235 -0.125977,0.160158 -0.188965,0.378419 -0.188965,0.654785 0,0.275391 0.06299,0.493165 0.188965,0.65332 0.126952,0.160157 0.297851,0.240235 0.512695,0.240235 0.214843,0 0.384764,-0.08008 0.509766,-0.240235 0.125975,-0.160155 0.188963,-0.377929 0.188965,-0.65332 -2e-6,-0.276366 -0.06299,-0.494627 -0.188965,-0.654785 -0.125002,-0.160155 -0.294923,-0.240233 -0.509766,-0.240235 m 0,-0.240234 c 0.30664,2e-6 0.551756,0.103029 0.735352,0.309082 0.183592,0.20508 0.275388,0.48047 0.275391,0.826172 -3e-6,0.344727 -0.0918,0.620118 -0.275391,0.826172 -0.183596,0.205078 -0.428712,0.307617 -0.735352,0.307617 -0.307618,0 -0.553711,-0.102539 -0.738281,-0.307617 -0.183594,-0.205078 -0.275391,-0.480468 -0.27539,-0.826172 -1e-6,-0.345702 0.0918,-0.621092 0.27539,-0.826172 0.18457,-0.206053 0.430663,-0.30908 0.738281,-0.309082"
         style=""
         id="path5213" />
    </g>
    <rect
       style="fill:#fcfcfc;fill-opacity:1;fill-rule:nonzero;stroke:#000000;stroke-opacity:1"
       id="rect3755-9"
       width="34.137291"
       height="17.068645"
       x="6.3079777"
       y="38.033394"
       transform="matrix(0,1,-1,0,134.8794,971.47164)" />
    <path
       transform="matrix(0,1,1,0,42.639408,971.44394)"
       style="stroke-linejoin:miter;marker-end:url(#Arrow2Mend5);stroke-opacity:1;stroke:#0621ff;stroke-linecap:butt;stroke-width:1px;marker-mid:none;fill:none"
       d="M 6.3079777,37.476809 C 6.4297789,30.405497 11.21307,26.534719 16.883117,25.41744"
       id="path3775-4"
       inkscape:connector-curvature="0"
       sodipodi:nodetypes="cc" />
    <g
       id="g5196">
      <g
         transform="translate(4.0366159,960.07208)"
         style="font-size:10px;font-style:normal;font-weight:normal;line-height:125%;letter-spacing:0px;word-spacing:0px;fill:#000000;fill-opacity:1;stroke:none;font-family:Sans"
         id="text4985">
        <path
           d="m 58.736038,14.211506 2.631836,0 0,0.800781 -2.631836,0 0,-0.800781"
           style=""
           id="path5203" />
        <path
           d="m 65.640335,10.92049 -2.490234,3.891602 2.490234,0 0,-3.891602 m -0.258789,-0.859375 1.240234,0 0,4.750977 1.040039,0 0,0.820312 -1.040039,0 0,1.71875 -0.981445,0 0,-1.71875 -3.291016,0 0,-0.952148 3.032227,-4.619141"
           style=""
           id="path5205" />
        <path
           d="m 72.007523,10.92049 -2.490235,3.891602 2.490235,0 0,-3.891602 m -0.258789,-0.859375 1.240234,0 0,4.750977 1.040039,0 0,0.820312 -1.040039,0 0,1.71875 -0.981445,0 0,-1.71875 -3.291016,0 0,-0.952148 3.032227,-4.619141"
           style=""
           id="path5207" />
      </g>
      <g
         transform="matrix(1.4819103,0,0,1.4819103,26.265073,1028.6647)"
         style="font-size:3px;font-style:normal;font-weight:normal;line-height:125%;letter-spacing:0px;word-spacing:0px;fill:#000000;fill-opacity:1;stroke:none;font-family:Sans"
         id="text5014-2">
        <path
           d="m 35.815929,-40.783913 c -0.214844,2e-6 -0.385743,0.08008 -0.512695,0.240235 -0.125977,0.160158 -0.188965,0.378419 -0.188965,0.654785 0,0.275391 0.06299,0.493165 0.188965,0.65332 0.126952,0.160157 0.297851,0.240235 0.512695,0.240235 0.214843,0 0.384764,-0.08008 0.509766,-0.240235 0.125975,-0.160155 0.188963,-0.377929 0.188965,-0.65332 -2e-6,-0.276366 -0.06299,-0.494627 -0.188965,-0.654785 -0.125002,-0.160155 -0.294923,-0.240233 -0.509766,-0.240235 m 0,-0.240234 c 0.30664,2e-6 0.551756,0.103029 0.735352,0.309082 0.183592,0.20508 0.275388,0.48047 0.275391,0.826172 -3e-6,0.344727 -0.0918,0.620118 -0.275391,0.826172 -0.183596,0.205078 -0.428712,0.307617 -0.735352,0.307617 -0.307618,0 -0.553711,-0.102539 -0.738281,-0.307617 -0.183594,-0.205078 -0.275391,-0.480468 -0.27539,-0.826172 -1e-6,-0.345702 0.0918,-0.621092 0.27539,-0.826172 0.18457,-0.206053 0.430663,-0.30908 0.738281,-0.309082"
           style=""
           id="path5210" />
      </g>
    </g>
    <path
       style="fill:none;stroke:#000000;stroke-width:1px;stroke-linecap:butt;stroke-linejoin:miter;stroke-opacity:1"
       d="m 28,80 0,8 10,0 0,5 12,-9 -12,-9 0,5 z"
       id="path5060"
       inkscape:connector-curvature="0"
       transform="translate(16.796007,912.43581)"
       sodipodi:nodetypes="cccccccc" />
  </g>
</svg>
