<?xml version="1.0" encoding="UTF-8" standalone="no"?>
<!-- Created with Inkscape (http://www.inkscape.org/) -->

<svg
   xmlns:dc="http://purl.org/dc/elements/1.1/"
   xmlns:cc="http://creativecommons.org/ns#"
   xmlns:rdf="http://www.w3.org/1999/02/22-rdf-syntax-ns#"
   xmlns:svg="http://www.w3.org/2000/svg"
   xmlns="http://www.w3.org/2000/svg"
   xmlns:sodipodi="http://sodipodi.sourceforge.net/DTD/sodipodi-0.dtd"
   xmlns:inkscape="http://www.inkscape.org/namespaces/inkscape"
   width="100"
   height="100"
   id="svg2"
   version="1.1"
   inkscape:version="0.48.4 r9939"
   sodipodi:docname="how-rotate+resize-worked.pdf">
  <sodipodi:namedview
     id="base"
     pagecolor="#ffffff"
     bordercolor="#666666"
     borderopacity="1.0"
     inkscape:pageopacity="0.0"
     inkscape:pageshadow="2"
     inkscape:zoom="3.8113056"
     inkscape:cx="52.137433"
     inkscape:cy="49.357726"
     inkscape:document-units="px"
     inkscape:current-layer="layer1"
     showgrid="false"
     showguides="true"
     inkscape:guide-bbox="true"
     inkscape:window-width="1024"
     inkscape:window-height="1256"
     inkscape:window-x="0"
     inkscape:window-y="24"
     inkscape:window-maximized="1" />
  <defs
     id="defs4">
    <marker
       style="overflow:visible;"
       id="Arrow2Mend"
       refX="0.0"
       refY="0.0"
       orient="auto"
       inkscape:stockid="Arrow2Mend">
      <path
         transform="scale(0.6) rotate(180) translate(0,0)"
         d="M 8.7185878,4.0337352 L -2.2072895,0.016013256 L 8.7185884,-4.0017078 C 6.9730900,-1.6296469 6.9831476,1.6157441 8.7185878,4.0337352 z "
         style="fill-rule:evenodd;stroke-width:0.62500000;stroke-linejoin:round;"
         id="path3986" />
    </marker>
    <marker
       style="overflow:visible;"
       id="Arrow2MendE"
       refX="0.0"
       refY="0.0"
       orient="auto"
       inkscape:stockid="Arrow2MendE">
      <path
         transform="scale(0.6) rotate(180) translate(0,0)"
         d="M 8.7185878,4.0337352 L -2.2072895,0.016013256 L 8.7185884,-4.0017078 C 6.9730900,-1.6296469 6.9831476,1.6157441 8.7185878,4.0337352 z "
         style="stroke-linejoin:round;stroke:#ff0303;stroke-width:0.62500000;fill:#ff0303;fill-rule:evenodd"
         id="path4404" />
    </marker>
    <marker
       style="overflow:visible"
       id="Arrow2MendE-4"
       refX="0"
       refY="0"
       orient="auto"
       inkscape:stockid="Arrow2MendE">
      <path
         inkscape:connector-curvature="0"
         transform="scale(-0.6,-0.6)"
         d="M 8.7185878,4.0337352 -2.2072895,0.01601326 8.7185884,-4.0017078 c -1.7454984,2.3720609 -1.7354408,5.6174519 -6e-7,8.035443 z"
         style="fill:#ff0303;fill-rule:evenodd;stroke:#ff0303;stroke-width:0.625;stroke-linejoin:round"
         id="path4404-8" />
    </marker>
    <marker
       style="overflow:visible"
       id="Arrow2MendE-5"
       refX="0"
       refY="0"
       orient="auto"
       inkscape:stockid="Arrow2MendE">
      <path
         inkscape:connector-curvature="0"
         transform="scale(-0.6,-0.6)"
         d="M 8.7185878,4.0337352 -2.2072895,0.01601326 8.7185884,-4.0017078 c -1.7454984,2.3720609 -1.7354408,5.6174519 -6e-7,8.035443 z"
         style="fill:#ff0303;fill-rule:evenodd;stroke:#ff0303;stroke-width:0.625;stroke-linejoin:round"
         id="path4404-0" />
    </marker>
  </defs>
  <metadata
     id="metadata7">
    <rdf:RDF>
      <cc:Work
         rdf:about="">
        <dc:format>image/svg+xml</dc:format>
        <dc:type
           rdf:resource="http://purl.org/dc/dcmitype/StillImage" />
        <dc:title></dc:title>
      </cc:Work>
    </rdf:RDF>
  </metadata>
  <g
     transform="translate(0,-952.36218)"
     id="layer1"
     inkscape:groupmode="layer"
     inkscape:label="Layer 1">
    <path
       transform="matrix(0.92264322,0,0,0.7857279,2.0456432,955.55316)"
       style="fill:none;stroke:#000000;stroke-width:0.69999999;stroke-linecap:round;stroke-linejoin:round;stroke-miterlimit:4;stroke-dashoffset:0;stroke-opacity:1"
       d="m 3.5250463,7.2356215 35.4359937,0 0,24.8608535 -35.4359937,0 z"
       id="rect3753" />
    <path
       transform="matrix(0.90386141,0,0,1.0794538,-13.485916,966.62061)"
       inkscape:connector-curvature="0"
       id="path3773"
       d="m 56.7718,12.801484 0,12.801484"
       style="fill:none;stroke:#ff0303;stroke-width:1px;stroke-linecap:butt;stroke-linejoin:miter;stroke-opacity:1;marker-mid:none;marker-end:url(#Arrow2MendE)" />
    <path
       transform="matrix(0.91726811,0,0,1.3762004,57.204049,948.4075)"
       style="fill:none;stroke:#000000;stroke-width:0.69999999;stroke-linecap:round;stroke-linejoin:round;stroke-miterlimit:4;stroke-dashoffset:0;stroke-opacity:1"
       d="m 3.5250463,7.2356215 35.4359937,0 0,24.8608535 -35.4359937,0 z"
       id="rect3753-4" />
    <path
       transform="matrix(0,-0.92264322,0.7857279,0,-0.20169762,1037.642)"
       style="fill:none;stroke:#000000;stroke-width:0.69999999;stroke-linecap:round;stroke-linejoin:round;stroke-miterlimit:4;stroke-dashoffset:0;stroke-opacity:1"
       d="m 3.5250463,7.2356215 35.4359937,0 0,24.8608535 -35.4359937,0 z"
       id="rect3753-6" />
    <path
       transform="matrix(0.90386141,0,0,1.0794538,-26.546697,1020.3365)"
       inkscape:connector-curvature="0"
       id="path3773-8"
       d="m 56.7718,12.801484 0,12.801484"
       style="fill:none;stroke:#ff0303;stroke-width:1px;stroke-linecap:butt;stroke-linejoin:miter;stroke-opacity:1;marker-mid:none;marker-end:url(#Arrow2MendE)" />
    <path
       transform="matrix(0.91726811,0,0,1.3762004,57.508869,991.53152)"
       style="fill:none;stroke:#000000;stroke-width:0.69999999;stroke-linecap:round;stroke-linejoin:round;stroke-miterlimit:4;stroke-dashoffset:0;stroke-opacity:1"
       d="m 3.5250463,7.2356215 35.4359937,0 0,24.8608535 -35.4359937,0 z"
       id="rect3753-4-9" />
    <path
       style="fill:none;stroke:#000000;stroke-width:1px;stroke-linecap:butt;stroke-linejoin:miter;stroke-opacity:1"
       d="m 30,60 0,8 10,0 0,8 13,-12 -13,-12 0,8 z"
       id="path4590"
       inkscape:connector-curvature="0"
       transform="matrix(0.66666667,0,0,0.66666667,15.399195,974.70819)"
       sodipodi:nodetypes="cccccccc" />
    <path
       style="fill:none;stroke:#000000;stroke-width:1px;stroke-linecap:butt;stroke-linejoin:miter;stroke-opacity:1"
       d="m 30,60 0,8 10,0 0,8 13,-12 -13,-12 0,8 z"
       id="path4590-0"
       inkscape:connector-curvature="0"
       transform="matrix(0.66666667,0,0,0.66666667,21.869511,932.70108)"
       sodipodi:nodetypes="cccccccc" />
    <g
       transform="translate(-4.4115352,952.64706)"
       style="font-size:3px;font-style:normal;font-weight:normal;line-height:125%;letter-spacing:0px;word-spacing:0px;fill:#000000;fill-opacity:1;stroke:none;font-family:Sans"
       id="text4646">
      <path
         d="m 7.8181772,3.7592039 c -0.1523445,2e-6 -0.2670905,0.075197 -0.3442383,0.2255859 -0.076172,0.1494157 -0.1142583,0.3745132 -0.1142578,0.675293 -5e-7,0.2998055 0.038085,0.5249029 0.1142578,0.675293 0.077148,0.1494143 0.1918938,0.2241213 0.3442383,0.2241211 0.1533192,2e-7 0.2680652,-0.074707 0.3442383,-0.2241211 C 8.2395626,5.1849857 8.2781367,4.9598883 8.2781382,4.6600828 8.2781367,4.359303 8.2395626,4.1342055 8.1624155,3.9847898 8.0862424,3.8344011 7.9714964,3.7592059 7.8181772,3.7592039 m 0,-0.234375 c 0.245116,2.2e-6 0.4321275,0.09717 0.5610352,0.2915039 0.1298811,0.1933611 0.1948225,0.4746109 0.1948242,0.84375 -1.7e-6,0.3681648 -0.064943,0.6494145 -0.1948242,0.84375 -0.1289077,0.1933594 -0.3159192,0.290039 -0.5610352,0.2900391 -0.2451179,-1e-7 -0.4326177,-0.09668 -0.5625,-0.2900391 -0.1289065,-0.1943355 -0.1933595,-0.4755852 -0.1933594,-0.84375 -10e-8,-0.3691391 0.064453,-0.6503889 0.1933594,-0.84375 0.1298823,-0.1943338 0.3173821,-0.2915017 0.5625,-0.2915039"
         style=""
         id="path3106" />
    </g>
    <g
       transform="translate(0,952.36218)"
       style="font-size:3px;font-style:normal;font-weight:normal;line-height:125%;letter-spacing:0px;word-spacing:0px;fill:#000000;fill-opacity:1;stroke:none;font-family:Sans"
       id="text4650">
      <path
         d="m 19.792025,5.7805252 0.269531,0 0.336914,1.2802734 0.335449,-1.2802734 0.317871,0 0.336914,1.2802734 0.33545,-1.2802734 0.269531,0 -0.429199,1.640625 -0.317872,0 -0.353027,-1.3447266 -0.354492,1.3447266 -0.317871,0 -0.429199,-1.640625"
         style=""
         id="path3103" />
    </g>
    <g
       transform="translate(0,952.36218)"
       style="font-size:3px;font-style:normal;font-weight:normal;line-height:125%;letter-spacing:0px;word-spacing:0px;fill:#000000;fill-opacity:1;stroke:none;font-family:Sans"
       id="text4654">
      <path
         d="m 4.6149445,19.046871 0,0.990235 -0.2695313,0 0,-0.981446 c -1.4e-6,-0.155272 -0.030275,-0.271483 -0.09082,-0.348633 -0.060548,-0.07715 -0.1513683,-0.115721 -0.2724609,-0.115722 -0.1455087,1e-6 -0.2602547,0.04639 -0.3442383,0.13916 -0.083985,0.09277 -0.1259771,0.219239 -0.1259766,0.379394 l 0,0.927247 -0.2709961,0 0,-2.279297 0.2709961,0 0,0.893554 c 0.064453,-0.09863 0.140136,-0.172361 0.2270508,-0.221191 0.08789,-0.04883 0.1889639,-0.07324 0.3032227,-0.07324 0.1884753,1e-6 0.3310532,0.0586 0.4277343,0.175781 0.096678,0.116212 0.1450179,0.287599 0.1450196,0.51416"
         style=""
         id="path3100" />
    </g>
    <g
       transform="translate(0,952.36218)"
       style="font-size:3px;font-style:normal;font-weight:normal;line-height:125%;letter-spacing:0px;word-spacing:0px;fill:#000000;fill-opacity:1;stroke:none;font-family:Sans"
       id="text4658">
      <path
         d="m 15.004556,46.505127 0,0.990234 -0.269532,0 0,-0.981445 c -10e-7,-0.155272 -0.03027,-0.271483 -0.09082,-0.348633 -0.06055,-0.07715 -0.151368,-0.115721 -0.272461,-0.115722 -0.145508,1e-6 -0.260254,0.04639 -0.344238,0.13916 -0.08399,0.09277 -0.125977,0.219239 -0.125977,0.379394 l 0,0.927246 -0.270996,0 0,-2.279297 0.270996,0 0,0.893555 c 0.06445,-0.09863 0.140136,-0.172362 0.227051,-0.221191 0.08789,-0.04883 0.188964,-0.07324 0.303223,-0.07324 0.188475,1e-6 0.331053,0.0586 0.427734,0.175781 0.09668,0.116212 0.145018,0.287599 0.14502,0.51416"
         style=""
         id="path3097" />
    </g>
    <g
       transform="translate(0,952.36218)"
       style="font-size:3px;font-style:normal;font-weight:normal;line-height:125%;letter-spacing:0px;word-spacing:0px;fill:#000000;fill-opacity:1;stroke:none;font-family:Sans"
       id="text4662">
      <path
         d="m 1.9812641,66.633957 0.2695313,0 0.336914,1.280273 0.3354492,-1.280273 0.3178711,0 0.3369141,1.280273 0.3354492,-1.280273 0.2695313,0 -0.4291992,1.640625 -0.3178711,0 -0.3530274,-1.344727 -0.3544922,1.344727 -0.3178711,0 -0.4291992,-1.640625"
         style=""
         id="path3094" />
    </g>
    <g
       transform="translate(0,952.36218)"
       style="font-size:3px;font-style:normal;font-weight:normal;line-height:125%;letter-spacing:0px;word-spacing:0px;fill:#000000;fill-opacity:1;stroke:none;font-family:Sans"
       id="text4666">
      <path
         d="m 56.526718,66.448425 0.269531,0 0.336914,1.280274 0.33545,-1.280274 0.317871,0 0.336914,1.280274 0.335449,-1.280274 0.269531,0 -0.429199,1.640625 -0.317871,0 -0.353027,-1.344726 -0.354493,1.344726 -0.317871,0 -0.429199,-1.640625"
         style=""
         id="path3091" />
    </g>
    <g
       transform="translate(0,952.36218)"
       style="font-size:3px;font-style:normal;font-weight:normal;line-height:125%;letter-spacing:0px;word-spacing:0px;fill:#000000;fill-opacity:1;stroke:none;font-family:Sans"
       id="text4670">
      <path
         d="m 74.744812,45.763012 0,0.990234 -0.269531,0 0,-0.981445 c -2e-6,-0.155272 -0.03027,-0.271483 -0.09082,-0.348633 -0.06055,-0.07715 -0.151368,-0.115721 -0.27246,-0.115722 -0.145509,1e-6 -0.260255,0.04639 -0.344239,0.13916 -0.08398,0.09277 -0.125977,0.219239 -0.125976,0.379394 l 0,0.927246 -0.270996,0 0,-2.279297 0.270996,0 0,0.893555 c 0.06445,-0.09863 0.140136,-0.172362 0.22705,-0.221191 0.08789,-0.04883 0.188964,-0.07324 0.303223,-0.07324 0.188475,1e-6 0.331053,0.0586 0.427734,0.175781 0.09668,0.116212 0.145018,0.287599 0.14502,0.51416"
         style=""
         id="path3084" />
      <path
         d="m 76.382507,44.872387 0,0.815918 0.815918,0 0,0.249023 -0.815918,0 0,0.815918 -0.246093,0 0,-0.815918 -0.815918,0 0,-0.249023 0.815918,0 0,-0.815918 0.246093,0"
         style=""
         id="path3086" />
      <path
         d="m 78.481628,46.90559 c -0.07617,0.195312 -0.150391,0.322753 -0.222656,0.382324 -0.07227,0.05957 -0.168946,0.08935 -0.290039,0.08936 l -0.215332,0 0,-0.225586 0.158203,0 c 0.07422,-1e-6 0.131836,-0.01758 0.172852,-0.05274 0.04102,-0.03516 0.08643,-0.118164 0.13623,-0.249023 l 0.04834,-0.123047 -0.663574,-1.614258 0.285644,0 0.512696,1.283203 0.512695,-1.283203 0.285645,0 -0.720704,1.792969"
         style=""
         id="path3088" />
    </g>
    <g
       transform="translate(2.3613956,953.93644)"
       style="font-size:3px;font-style:normal;font-weight:normal;line-height:125%;letter-spacing:0px;word-spacing:0px;fill:#000000;fill-opacity:1;stroke:none;font-family:Sans"
       id="text4674">
      <path
         d="m 72.111137,0.77124882 0.269532,0 0.336914,1.28027348 0.335449,-1.28027348 0.317871,0 0.336914,1.28027348 0.335449,-1.28027348 0.269532,0 -0.4292,1.64062498 -0.317871,0 -0.353027,-1.3447265 -0.354492,1.3447265 -0.317871,0 -0.4292,-1.64062498"
         style=""
         id="path3081" />
    </g>
    <g
       transform="translate(-5.3034854,942.44685)"
       style="font-size:3px;font-style:normal;font-weight:normal;line-height:125%;letter-spacing:0px;word-spacing:0px;fill:#000000;fill-opacity:1;stroke:none;font-family:Sans"
       id="text4678">
      <path
         d="m 59.531456,24.983791 0,0.990235 -0.269531,0 0,-0.981446 c -2e-6,-0.155272 -0.03027,-0.271483 -0.09082,-0.348632 -0.06055,-0.07715 -0.151368,-0.115722 -0.272461,-0.115723 -0.145508,1e-6 -0.260254,0.04639 -0.344238,0.13916 -0.08399,0.09277 -0.125977,0.219239 -0.125976,0.379395 l 0,0.927246 -0.270996,0 0,-2.279297 0.270996,0 0,0.893555 c 0.06445,-0.09863 0.140136,-0.172362 0.22705,-0.221192 0.08789,-0.04883 0.188964,-0.07324 0.303223,-0.07324 0.188475,2e-6 0.331053,0.0586 0.427734,0.175781 0.09668,0.116213 0.145018,0.287599 0.14502,0.51416"
         style=""
         id="path3074" />
      <path
         d="m 61.169151,24.093166 0,0.815918 0.815918,0 0,0.249024 -0.815918,0 0,0.815918 -0.246093,0 0,-0.815918 -0.815918,0 0,-0.249024 0.815918,0 0,-0.815918 0.246093,0"
         style=""
         id="path3076" />
      <path
         d="m 63.268272,26.126369 c -0.07617,0.195313 -0.150391,0.322754 -0.222656,0.382325 -0.07227,0.05957 -0.168946,0.08936 -0.290039,0.08936 l -0.215332,0 0,-0.225586 0.158203,0 c 0.07422,0 0.131836,-0.01758 0.172852,-0.05273 0.04102,-0.03516 0.08643,-0.118164 0.13623,-0.249024 l 0.04834,-0.123046 -0.663574,-1.614258 0.285644,0 0.512696,1.283203 0.512695,-1.283203 0.285645,0 -0.720704,1.792968"
         style=""
         id="path3078" />
    </g>
    <g
       transform="translate(-6.1368329,992.68978)"
       style="font-size:3px;font-style:normal;font-weight:normal;line-height:125%;letter-spacing:0px;word-spacing:0px;fill:#000000;fill-opacity:1;stroke:none;font-family:Sans"
       id="text4646-2">
      <path
         d="m 7.1941538,5.7059813 0,-0.2695313 c 0.074218,0.035157 0.1494136,0.062012 0.2255859,0.080566 0.076171,0.018555 0.1508782,0.027832 0.2241211,0.027832 0.1953115,2e-7 0.3442372,-0.065429 0.4467774,-0.196289 C 8.1941525,5.216724 8.2532344,5.0170171 8.2678843,4.7494383 8.2112423,4.8334236 8.139465,4.8978766 8.0525522,4.9427977 7.9656371,4.9877203 7.8694457,5.0101812 7.763978,5.0101805 7.5452273,5.0101812 7.3718877,4.9442633 7.2439585,4.8124266 7.1170051,4.6796151 7.0535286,4.498463 7.0535288,4.2689695 c -2e-7,-0.2246076 0.066406,-0.4047832 0.1992187,-0.5405273 0.132812,-0.13574 0.3095697,-0.2036111 0.5302735,-0.2036133 0.2529285,2.2e-6 0.4457994,0.09717 0.5786133,0.2915039 0.1337874,0.1933611 0.2006819,0.4746109 0.2006835,0.84375 C 8.5623162,5.0048101 8.480285,5.2802005 8.3162241,5.4862547 8.1531369,5.6913329 7.9334105,5.7938718 7.6570444,5.7938719 7.5828249,5.7938718 7.5076297,5.7865476 7.4314585,5.7718992 7.3552861,5.7572508 7.2761846,5.7352781 7.1941538,5.7059813 M 7.783021,4.7787352 c 0.1328114,9e-7 0.2377918,-0.045409 0.3149414,-0.1362305 C 8.1760861,4.5516856 8.2151485,4.427174 8.2151499,4.2689695 8.2151485,4.1117446 8.1760861,3.9877213 8.0979624,3.8968992 8.0208128,3.8051043 7.9158324,3.7592059 7.783021,3.7592039 c -0.1328133,2e-6 -0.238282,0.0459 -0.3164063,0.1376953 -0.077149,0.090822 -0.1157231,0.2148454 -0.1157226,0.3720703 -5e-7,0.1582045 0.038574,0.2827161 0.1157226,0.3735352 0.078124,0.090821 0.183593,0.1362314 0.3164063,0.1362305"
         style=""
         id="path3069" />
      <path
         d="m 9.7283335,3.7592039 c -0.1523446,2e-6 -0.2670906,0.075197 -0.3442383,0.2255859 -0.076172,0.1494157 -0.1142583,0.3745132 -0.1142578,0.675293 -5e-7,0.2998055 0.038085,0.5249029 0.1142578,0.675293 0.077148,0.1494143 0.1918937,0.2241213 0.3442383,0.2241211 0.1533192,2e-7 0.2680652,-0.074707 0.3442385,-0.2241211 0.07715,-0.1503901 0.115721,-0.3754875 0.115722,-0.675293 -1e-6,-0.3007798 -0.03858,-0.5258773 -0.115722,-0.675293 C 9.9963987,3.8344011 9.8816527,3.7592059 9.7283335,3.7592039 m 0,-0.234375 c 0.245116,2.2e-6 0.4321275,0.09717 0.5610355,0.2915039 0.129881,0.1933611 0.194822,0.4746109 0.194824,0.84375 -2e-6,0.3681648 -0.06494,0.6494145 -0.194824,0.84375 -0.128908,0.1933594 -0.3159195,0.290039 -0.5610355,0.2900391 -0.2451179,-1e-7 -0.4326177,-0.09668 -0.5625,-0.2900391 C 9.036927,5.3094973 8.9724739,5.0282476 8.9724741,4.6600828 c -2e-7,-0.3691391 0.064453,-0.6503889 0.1933594,-0.84375 0.1298823,-0.1943338 0.3173821,-0.2915017 0.5625,-0.2915039"
         style=""
         id="path3071" />
    </g>
    <g
       transform="matrix(0.61746261,0,0,0.61746261,-2.3731456,972.96553)"
       style="font-size:3px;font-style:normal;font-weight:normal;line-height:125%;letter-spacing:0px;word-spacing:0px;fill:#000000;fill-opacity:1;stroke:none;font-family:Sans"
       id="text4707">
      <path
         d="m 11.67722,35.830257 c -0.214844,2e-6 -0.385743,0.08008 -0.512695,0.240235 -0.125977,0.160158 -0.188965,0.378419 -0.188965,0.654785 0,0.275391 0.06299,0.493165 0.188965,0.65332 0.126952,0.160157 0.297851,0.240235 0.512695,0.240235 0.214843,0 0.384764,-0.08008 0.509766,-0.240235 0.125975,-0.160155 0.188963,-0.377929 0.188965,-0.65332 -2e-6,-0.276366 -0.06299,-0.494627 -0.188965,-0.654785 -0.125002,-0.160155 -0.294923,-0.240233 -0.509766,-0.240235 m 0,-0.240234 c 0.306639,2e-6 0.551756,0.10303 0.735352,0.309082 0.183592,0.20508 0.275388,0.48047 0.275391,0.826172 -3e-6,0.344727 -0.0918,0.620118 -0.275391,0.826172 -0.183596,0.205078 -0.428713,0.307617 -0.735352,0.307617 -0.307618,0 -0.553711,-0.102539 -0.738281,-0.307617 -0.183594,-0.205078 -0.275391,-0.480468 -0.275391,-0.826172 0,-0.345702 0.0918,-0.621092 0.275391,-0.826172 0.18457,-0.206052 0.430663,-0.30908 0.738281,-0.309082"
         style=""
         id="path3066" />
    </g>
    <g
       transform="matrix(0.61746261,0,0,0.61746261,-2.3002957,933.16272)"
       style="font-size:3px;font-style:normal;font-weight:normal;line-height:125%;letter-spacing:0px;word-spacing:0px;fill:#000000;fill-opacity:1;stroke:none;font-family:Sans"
       id="text4707-4">
      <path
         d="m 11.67722,35.830257 c -0.214844,2e-6 -0.385743,0.08008 -0.512695,0.240235 -0.125977,0.160158 -0.188965,0.378419 -0.188965,0.654785 0,0.275391 0.06299,0.493165 0.188965,0.65332 0.126952,0.160157 0.297851,0.240235 0.512695,0.240235 0.214843,0 0.384764,-0.08008 0.509766,-0.240235 0.125975,-0.160155 0.188963,-0.377929 0.188965,-0.65332 -2e-6,-0.276366 -0.06299,-0.494627 -0.188965,-0.654785 -0.125002,-0.160155 -0.294923,-0.240233 -0.509766,-0.240235 m 0,-0.240234 c 0.306639,2e-6 0.551756,0.10303 0.735352,0.309082 0.183592,0.20508 0.275388,0.48047 0.275391,0.826172 -3e-6,0.344727 -0.0918,0.620118 -0.275391,0.826172 -0.183596,0.205078 -0.428713,0.307617 -0.735352,0.307617 -0.307618,0 -0.553711,-0.102539 -0.738281,-0.307617 -0.183594,-0.205078 -0.275391,-0.480468 -0.275391,-0.826172 0,-0.345702 0.0918,-0.621092 0.275391,-0.826172 0.18457,-0.206052 0.430663,-0.30908 0.738281,-0.309082"
         style=""
         id="path3063" />
    </g>
    <g
       transform="matrix(1.1659271,0,0,1.9615159,-2.8075974,968.01709)"
       style="font-size:3px;font-style:normal;font-weight:normal;line-height:125%;letter-spacing:0px;word-spacing:0px;fill:#000000;fill-opacity:1;stroke:none;font-family:Sans"
       id="text4732">
      <path
         d="m 24.747608,33.713284 0.621094,0 0,0.209472 -0.351563,0 0,2.25586 0.351563,0 0,0.209472 -0.621094,0 0,-2.674804"
         style=""
         id="path3060" />
    </g>
    <g
       transform="matrix(1.1659271,0,0,1.1659271,17.525824,991.77553)"
       style="font-size:3px;font-style:normal;font-weight:normal;line-height:125%;letter-spacing:0px;word-spacing:0px;fill:#000000;fill-opacity:1;stroke:none;font-family:Sans"
       id="text4736">
      <path
         d="m 8.745821,36.783321 c -0.1523446,2e-6 -0.2670905,0.0752 -0.3442383,0.225586 -0.076172,0.149416 -0.1142583,0.374513 -0.1142578,0.675293 -5e-7,0.299806 0.038085,0.524903 0.1142578,0.675293 0.077148,0.149415 0.1918937,0.224122 0.3442383,0.224121 0.1533192,1e-6 0.2680652,-0.07471 0.3442383,-0.224121 0.077147,-0.15039 0.1157212,-0.375487 0.1157226,-0.675293 -1.4e-6,-0.30078 -0.038576,-0.525877 -0.1157226,-0.675293 C 9.0138862,36.858519 8.8991402,36.783323 8.745821,36.783321 m 0,-0.234375 c 0.245116,3e-6 0.4321275,0.09717 0.5610352,0.291504 0.1298811,0.193361 0.1948225,0.474611 0.1948242,0.84375 -1.7e-6,0.368165 -0.064943,0.649415 -0.1948242,0.84375 -0.1289077,0.19336 -0.3159192,0.290039 -0.5610352,0.290039 -0.2451179,0 -0.4326177,-0.09668 -0.5625,-0.290039 -0.1289065,-0.194335 -0.1933596,-0.475585 -0.1933594,-0.84375 -2e-7,-0.369139 0.064453,-0.650389 0.1933594,-0.84375 0.1298823,-0.194334 0.3173821,-0.291501 0.5625,-0.291504"
         style=""
         id="path3057" />
    </g>
    <g
       transform="matrix(1.1659271,0,0,1.1659271,2.6002278,990.91028)"
       style="font-size:3px;font-style:normal;font-weight:normal;line-height:125%;letter-spacing:0px;word-spacing:0px;fill:#000000;fill-opacity:1;stroke:none;font-family:Sans"
       id="text4740">
      <path
         d="m 21.744553,41.710785 c -0.07617,0.195312 -0.150392,0.322753 -0.222657,0.382324 -0.07227,0.05957 -0.168946,0.08936 -0.290039,0.08936 l -0.215332,0 0,-0.225586 0.158203,0 c 0.07422,-10e-7 0.131836,-0.01758 0.172852,-0.05273 0.04101,-0.03516 0.08642,-0.118164 0.13623,-0.249023 l 0.04834,-0.123047 -0.663574,-1.614258 0.285645,0 0.512695,1.283203 0.512695,-1.283203 0.285645,0 -0.720703,1.792969"
         style=""
         id="path3054" />
    </g>
    <g
       transform="matrix(-1.1659271,0,0,1.9615159,58.653763,967.96281)"
       style="font-size:3px;font-style:normal;font-weight:normal;line-height:125%;letter-spacing:0px;word-spacing:0px;fill:#000000;fill-opacity:1;stroke:none;font-family:Sans"
       id="text4732-7">
      <path
         d="m 24.747608,33.713284 0.621094,0 0,0.209472 -0.351563,0 0,2.25586 0.351563,0 0,0.209472 -0.621094,0 0,-2.674804"
         style=""
         id="path3051" />
    </g>
    <g
       transform="matrix(1.1659271,0,0,1.9615159,10.167207,915.6062)"
       style="font-size:3px;font-style:normal;font-weight:normal;line-height:125%;letter-spacing:0px;word-spacing:0px;fill:#000000;fill-opacity:1;stroke:none;font-family:Sans"
       id="text4732-5">
      <path
         d="m 24.747608,33.713284 0.621094,0 0,0.209472 -0.351563,0 0,2.25586 0.351563,0 0,0.209472 -0.621094,0 0,-2.674804"
         style=""
         id="path3048" />
    </g>
    <g
       transform="matrix(1.1659271,0,0,1.1659271,30.50063,939.36464)"
       style="font-size:3px;font-style:normal;font-weight:normal;line-height:125%;letter-spacing:0px;word-spacing:0px;fill:#000000;fill-opacity:1;stroke:none;font-family:Sans"
       id="text4736-3">
      <path
         d="m 8.745821,36.783321 c -0.1523446,2e-6 -0.2670905,0.0752 -0.3442383,0.225586 -0.076172,0.149416 -0.1142583,0.374513 -0.1142578,0.675293 -5e-7,0.299806 0.038085,0.524903 0.1142578,0.675293 0.077148,0.149415 0.1918937,0.224122 0.3442383,0.224121 0.1533192,1e-6 0.2680652,-0.07471 0.3442383,-0.224121 0.077147,-0.15039 0.1157212,-0.375487 0.1157226,-0.675293 -1.4e-6,-0.30078 -0.038576,-0.525877 -0.1157226,-0.675293 C 9.0138862,36.858519 8.8991402,36.783323 8.745821,36.783321 m 0,-0.234375 c 0.245116,3e-6 0.4321275,0.09717 0.5610352,0.291504 0.1298811,0.193361 0.1948225,0.474611 0.1948242,0.84375 -1.7e-6,0.368165 -0.064943,0.649415 -0.1948242,0.84375 -0.1289077,0.19336 -0.3159192,0.290039 -0.5610352,0.290039 -0.2451179,0 -0.4326177,-0.09668 -0.5625,-0.290039 -0.1289065,-0.194335 -0.1933596,-0.475585 -0.1933594,-0.84375 -2e-7,-0.369139 0.064453,-0.650389 0.1933594,-0.84375 0.1298823,-0.194334 0.3173821,-0.291501 0.5625,-0.291504"
         style=""
         id="path3045" />
    </g>
    <g
       transform="matrix(1.1659271,0,0,1.1659271,15.575032,938.49939)"
       style="font-size:3px;font-style:normal;font-weight:normal;line-height:125%;letter-spacing:0px;word-spacing:0px;fill:#000000;fill-opacity:1;stroke:none;font-family:Sans"
       id="text4740-0">
      <path
         d="m 21.744553,41.710785 c -0.07617,0.195312 -0.150392,0.322753 -0.222657,0.382324 -0.07227,0.05957 -0.168946,0.08936 -0.290039,0.08936 l -0.215332,0 0,-0.225586 0.158203,0 c 0.07422,-10e-7 0.131836,-0.01758 0.172852,-0.05273 0.04101,-0.03516 0.08642,-0.118164 0.13623,-0.249023 l 0.04834,-0.123047 -0.663574,-1.614258 0.285645,0 0.512695,1.283203 0.512695,-1.283203 0.285645,0 -0.720703,1.792969"
         style=""
         id="path3042" />
    </g>
    <g
       transform="matrix(-1.1659271,0,0,1.9615159,71.628568,915.55192)"
       style="font-size:3px;font-style:normal;font-weight:normal;line-height:125%;letter-spacing:0px;word-spacing:0px;fill:#000000;fill-opacity:1;stroke:none;font-family:Sans"
       id="text4732-7-7">
      <path
         d="m 24.747608,33.713284 0.621094,0 0,0.209472 -0.351563,0 0,2.25586 0.351563,0 0,0.209472 -0.621094,0 0,-2.674804"
         style=""
         id="path3039" />
    </g>
  </g>
</svg>
