<?xml version="1.0" encoding="UTF-8" standalone="no"?>
<!-- Created with Inkscape (http://www.inkscape.org/) -->

<svg
   xmlns:dc="http://purl.org/dc/elements/1.1/"
   xmlns:cc="http://creativecommons.org/ns#"
   xmlns:rdf="http://www.w3.org/1999/02/22-rdf-syntax-ns#"
   xmlns:svg="http://www.w3.org/2000/svg"
   xmlns="http://www.w3.org/2000/svg"
   xmlns:sodipodi="http://sodipodi.sourceforge.net/DTD/sodipodi-0.dtd"
   xmlns:inkscape="http://www.inkscape.org/namespaces/inkscape"
   width="100"
   height="100"
   id="svg2"
   version="1.1"
   inkscape:version="0.48.4 r9939"
   sodipodi:docname="scaling-with-strecting.pdf">
  <sodipodi:namedview
     id="base"
     pagecolor="#ffffff"
     bordercolor="#666666"
     borderopacity="1.0"
     inkscape:pageopacity="0.0"
     inkscape:pageshadow="2"
     inkscape:zoom="3.959798"
     inkscape:cx="63.254796"
     inkscape:cy="10.146276"
     inkscape:document-units="px"
     inkscape:current-layer="layer1"
     showgrid="false"
     inkscape:window-width="1024"
     inkscape:window-height="1256"
     inkscape:window-x="0"
     inkscape:window-y="24"
     inkscape:window-maximized="1" />
  <defs
     id="defs4">
    <marker
       style="overflow:visible"
       id="TriangleOutM"
       refX="0.0"
       refY="0.0"
       orient="auto"
       inkscape:stockid="TriangleOutM">
      <path
         transform="scale(0.4)"
         style="fill-rule:evenodd;stroke:#000000;stroke-width:1.0pt"
         d="M 5.77,0.0 L -2.88,5.0 L -2.88,-5.0 L 5.77,0.0 z "
         id="path4309" />
    </marker>
    <marker
       style="overflow:visible"
       id="TriangleOutL"
       refX="0.0"
       refY="0.0"
       orient="auto"
       inkscape:stockid="TriangleOutL">
      <path
         transform="scale(0.8)"
         style="fill-rule:evenodd;stroke:#000000;stroke-width:1.0pt"
         d="M 5.77,0.0 L -2.88,5.0 L -2.88,-5.0 L 5.77,0.0 z "
         id="path4306" />
    </marker>
    <marker
       style="overflow:visible;"
       id="Arrow2Send"
       refX="0.0"
       refY="0.0"
       orient="auto"
       inkscape:stockid="Arrow2Send">
      <path
         transform="scale(0.3) rotate(180) translate(-2.3,0)"
         d="M 8.7185878,4.0337352 L -2.2072895,0.016013256 L 8.7185884,-4.0017078 C 6.9730900,-1.6296469 6.9831476,1.6157441 8.7185878,4.0337352 z "
         style="fill-rule:evenodd;stroke-width:0.62500000;stroke-linejoin:round;"
         id="path4197" />
    </marker>
    <marker
       style="overflow:visible;"
       id="Arrow2Mend"
       refX="0.0"
       refY="0.0"
       orient="auto"
       inkscape:stockid="Arrow2Mend">
      <path
         transform="scale(0.6) rotate(180) translate(0,0)"
         d="M 8.7185878,4.0337352 L -2.2072895,0.016013256 L 8.7185884,-4.0017078 C 6.9730900,-1.6296469 6.9831476,1.6157441 8.7185878,4.0337352 z "
         style="fill-rule:evenodd;stroke-width:0.62500000;stroke-linejoin:round;"
         id="path4191" />
    </marker>
    <marker
       inkscape:stockid="Arrow1Mend"
       orient="auto"
       refY="0.0"
       refX="0.0"
       id="Arrow1Mend"
       style="overflow:visible;">
      <path
         id="path4173"
         d="M 0.0,0.0 L 5.0,-5.0 L -12.5,0.0 L 5.0,5.0 L 0.0,0.0 z "
         style="fill-rule:evenodd;stroke:#000000;stroke-width:1.0pt;"
         transform="scale(0.4) rotate(180) translate(10,0)" />
    </marker>
    <marker
       inkscape:stockid="Arrow1Send"
       orient="auto"
       refY="0.0"
       refX="0.0"
       id="Arrow1Send"
       style="overflow:visible;">
      <path
         id="path4179"
         d="M 0.0,0.0 L 5.0,-5.0 L -12.5,0.0 L 5.0,5.0 L 0.0,0.0 z "
         style="fill-rule:evenodd;stroke:#000000;stroke-width:1.0pt;"
         transform="scale(0.2) rotate(180) translate(6,0)" />
    </marker>
    <marker
       inkscape:stockid="Arrow1Lend"
       orient="auto"
       refY="0.0"
       refX="0.0"
       id="Arrow1Lend"
       style="overflow:visible;">
      <path
         id="path4167"
         d="M 0.0,0.0 L 5.0,-5.0 L -12.5,0.0 L 5.0,5.0 L 0.0,0.0 z "
         style="fill-rule:evenodd;stroke:#000000;stroke-width:1.0pt;"
         transform="scale(0.8) rotate(180) translate(12.5,0)" />
    </marker>
    <marker
       inkscape:stockid="Arrow1Lstart"
       orient="auto"
       refY="0.0"
       refX="0.0"
       id="Arrow1Lstart"
       style="overflow:visible">
      <path
         id="path4164"
         d="M 0.0,0.0 L 5.0,-5.0 L -12.5,0.0 L 5.0,5.0 L 0.0,0.0 z "
         style="fill-rule:evenodd;stroke:#000000;stroke-width:1.0pt"
         transform="scale(0.8) translate(12.5,0)" />
    </marker>
    <marker
       inkscape:stockid="Arrow1Mend4"
       orient="auto"
       refY="0.0"
       refX="0.0"
       id="Arrow1Mend4"
       style="overflow:visible;">
      <path
         id="path5179"
         d="M 0.0,0.0 L 5.0,-5.0 L -12.5,0.0 L 5.0,5.0 L 0.0,0.0 z "
         style="stroke:#f50000;stroke-width:1.0pt;fill:#f50000;fill-rule:evenodd"
         transform="scale(0.4) rotate(180) translate(10,0)" />
    </marker>
    <marker
       style="overflow:visible"
       id="TriangleOutMC"
       refX="0.0"
       refY="0.0"
       orient="auto"
       inkscape:stockid="TriangleOutMC">
      <path
         transform="scale(0.4)"
         style="stroke:#f50000;stroke-width:1.0pt;fill:#f50000;fill-rule:evenodd"
         d="M 5.77,0.0 L -2.88,5.0 L -2.88,-5.0 L 5.77,0.0 z "
         id="path7979" />
    </marker>
  </defs>
  <metadata
     id="metadata7">
    <rdf:RDF>
      <cc:Work
         rdf:about="">
        <dc:format>image/svg+xml</dc:format>
        <dc:type
           rdf:resource="http://purl.org/dc/dcmitype/StillImage" />
        <dc:title></dc:title>
      </cc:Work>
    </rdf:RDF>
  </metadata>
  <g
     inkscape:label="Layer 1"
     inkscape:groupmode="layer"
     id="layer1"
     transform="translate(0,-952.36218)">
    <path
       style="fill:none;stroke:#000000;stroke-width:1.12439275px;stroke-linecap:butt;stroke-linejoin:miter;stroke-opacity:1"
       d="m 15,40 10,0 0,10 5,0 -10,10 -10,-10 5,0 c -0.01314,-2.8e-4 0,-10 0,-10 z"
       id="path2993"
       inkscape:connector-curvature="0"
       transform="matrix(0.89089825,0,0,0.88784243,8.6566207,917.37155)"
       sodipodi:nodetypes="cccccccc" />
    <g
       id="g3994"
       transform="matrix(1.4834718,0,0,1.9155991,6.5436957,-907.07271)">
      <rect
         transform="matrix(1.4898736,0.96753523,-0.54463904,0.83867057,27.997157,945.82892)"
         y="38.128155"
         x="4.2931485"
         height="22.98097"
         width="21.465742"
         id="rect2995"
         style="fill:none;stroke:#000000;stroke-width:0.44507071;stroke-opacity:1" />
      <rect
         transform="matrix(0.84186047,0,0,0.83076924,1.9932894,959.83645)"
         y="26.258863"
         x="-1.767767"
         height="49.244938"
         width="54.2957"
         id="rect3812"
         style="fill:none;stroke:#0000e5;stroke-width:0.70932907;stroke-linecap:round;stroke-linejoin:round;stroke-miterlimit:4;stroke-opacity:1;stroke-dasharray:2.83731634, 2.83731634;stroke-dashoffset:0" />
    </g>
    <g
       transform="matrix(1.9797739,0,0,1.9729832,-57.700484,943.88019)"
       style="font-size:4px;font-style:normal;font-variant:normal;font-weight:normal;font-stretch:normal;text-align:start;line-height:125%;letter-spacing:0px;word-spacing:0px;writing-mode:lr-tb;text-anchor:start;fill:#000000;fill-opacity:1;stroke:none;font-family:Sans;-inkscape-font-specification:Sans"
       id="text4097">
      <path
         d="m 32.017578,13.417969 1.376953,0 0,0.332031 -1.851562,0 0,-0.332031 c 0.149739,-0.154948 0.353515,-0.36263 0.611328,-0.623047 0.259113,-0.261718 0.421874,-0.430337 0.488281,-0.505859 0.126301,-0.141926 0.214191,-0.261718 0.263672,-0.359375 0.05078,-0.09896 0.07617,-0.195962 0.07617,-0.291016 -2e-6,-0.154946 -0.05469,-0.281248 -0.164063,-0.378906 -0.108074,-0.09765 -0.24935,-0.146482 -0.423828,-0.146485 -0.123699,3e-6 -0.254558,0.02149 -0.392578,0.06445 -0.136719,0.04297 -0.283203,0.108076 -0.439453,0.195313 l 0,-0.398438 c 0.158854,-0.0638 0.307291,-0.111976 0.445312,-0.144531 0.13802,-0.03255 0.264322,-0.04883 0.378907,-0.04883 0.302082,3e-6 0.542967,0.07552 0.722656,0.226563 0.179685,0.151044 0.269529,0.352866 0.269531,0.605468 -2e-6,0.119794 -0.02279,0.233726 -0.06836,0.341797 -0.04427,0.106773 -0.125653,0.233075 -0.244141,0.378906 -0.03255,0.03776 -0.136069,0.147137 -0.310547,0.328125 -0.17448,0.179689 -0.420574,0.431642 -0.738281,0.75586"
         style=""
         id="path3037" />
      <path
         d="m 35.068359,11.09375 c -0.203126,3e-6 -0.35612,0.100263 -0.458984,0.300781 -0.101563,0.199221 -0.152344,0.499351 -0.152344,0.900391 0,0.399741 0.05078,0.69987 0.152344,0.900391 0.102864,0.199219 0.255858,0.298828 0.458984,0.298828 0.204426,0 0.357421,-0.09961 0.458985,-0.298828 0.102862,-0.200521 0.154295,-0.50065 0.154297,-0.900391 -2e-6,-0.40104 -0.05143,-0.70117 -0.154297,-0.900391 -0.101564,-0.200518 -0.254559,-0.300778 -0.458985,-0.300781 m 0,-0.3125 c 0.326822,3e-6 0.57617,0.12956 0.748047,0.388672 0.173175,0.257815 0.259764,0.632814 0.259766,1.125 -2e-6,0.490886 -0.08659,0.865886 -0.259766,1.125 -0.171877,0.257812 -0.421225,0.386719 -0.748047,0.386719 -0.326823,0 -0.576823,-0.128907 -0.75,-0.386719 -0.171875,-0.259114 -0.257812,-0.634114 -0.257812,-1.125 0,-0.492186 0.08594,-0.867185 0.257812,-1.125 0.173177,-0.259112 0.423177,-0.388669 0.75,-0.388672"
         style=""
         id="path3039" />
      <path
         d="m 39.251953,12.466797 c -0.113284,1e-6 -0.202477,0.04818 -0.267578,0.144531 -0.06381,0.09635 -0.09571,0.23047 -0.0957,0.402344 -3e-6,0.169271 0.0319,0.302735 0.0957,0.400391 0.0651,0.09635 0.154294,0.144531 0.267578,0.144531 0.110674,0 0.197914,-0.04818 0.261719,-0.144531 0.0651,-0.09766 0.09765,-0.23112 0.09766,-0.400391 -3e-6,-0.170572 -0.03256,-0.304036 -0.09766,-0.400391 -0.06381,-0.09766 -0.151045,-0.146483 -0.261719,-0.146484 m 0,-0.248047 c 0.205726,2e-6 0.369137,0.07162 0.490234,0.214844 0.121091,0.14323 0.181638,0.336589 0.181641,0.580078 -3e-6,0.24349 -0.0612,0.436849 -0.183594,0.580078 -0.121097,0.141927 -0.283857,0.212891 -0.488281,0.212891 -0.208336,0 -0.373049,-0.07096 -0.494141,-0.212891 -0.121096,-0.143229 -0.181642,-0.336588 -0.18164,-0.580078 -2e-6,-0.244791 0.06054,-0.43815 0.18164,-0.580078 0.122394,-0.143228 0.287107,-0.214842 0.494141,-0.214844 m -2.015625,-1.189453 c -0.11198,3e-6 -0.200521,0.04883 -0.265625,0.146484 -0.0638,0.09636 -0.0957,0.229169 -0.0957,0.398438 -10e-7,0.171877 0.0319,0.305991 0.0957,0.402344 0.0638,0.09635 0.152343,0.144532 0.265625,0.144531 0.11328,1e-6 0.201822,-0.04818 0.265625,-0.144531 0.0651,-0.09635 0.09766,-0.230467 0.09766,-0.402344 -10e-7,-0.167967 -0.03255,-0.300779 -0.09766,-0.398438 -0.06511,-0.09765 -0.153647,-0.146481 -0.265625,-0.146484 M 39,10.78125 l 0.3125,0 -1.824219,3.025391 -0.3125,0 L 39,10.78125 m -1.763672,0 c 0.205728,3e-6 0.369791,0.07162 0.492188,0.214844 0.122394,0.141929 0.183592,0.334638 0.183593,0.578125 -10e-7,0.246095 -0.0612,0.440106 -0.183593,0.582031 -0.121095,0.141929 -0.285158,0.212892 -0.492188,0.212891 -0.207032,10e-7 -0.371094,-0.07096 -0.492187,-0.212891 -0.119792,-0.143227 -0.179688,-0.337238 -0.179688,-0.582031 0,-0.242185 0.06055,-0.434893 0.181641,-0.578125 0.121093,-0.143227 0.284504,-0.214841 0.490234,-0.214844"
         style=""
         id="path3041" />
    </g>
    <g
       transform="matrix(1.9797739,0,0,1.9729832,-16.829824,943.33572)"
       style="font-size:4px;font-style:normal;font-variant:normal;font-weight:normal;font-stretch:normal;text-align:start;line-height:125%;letter-spacing:0px;word-spacing:0px;writing-mode:lr-tb;text-anchor:start;fill:#000000;fill-opacity:1;stroke:none;font-family:Sans;-inkscape-font-specification:Sans"
       id="text4097-9-94">
      <path
         d="m 32.521484,12.365234 c -0.187501,2e-6 -0.335287,0.05013 -0.443359,0.150391 -0.106772,0.100262 -0.160157,0.238282 -0.160156,0.414063 -1e-6,0.175781 0.05338,0.313802 0.160156,0.414062 0.108072,0.100261 0.255858,0.150391 0.443359,0.150391 0.187499,0 0.335285,-0.05013 0.44336,-0.150391 0.108071,-0.101562 0.162107,-0.239583 0.162109,-0.414062 -2e-6,-0.175781 -0.05404,-0.313801 -0.162109,-0.414063 -0.106773,-0.100259 -0.254559,-0.150389 -0.44336,-0.150391 m -0.394531,-0.167968 c -0.169271,-0.04167 -0.301433,-0.120441 -0.396484,-0.236328 -0.09375,-0.115884 -0.140626,-0.25716 -0.140625,-0.423829 -1e-6,-0.23307 0.08268,-0.417315 0.248047,-0.552734 0.166666,-0.135414 0.39453,-0.203122 0.683593,-0.203125 0.290363,3e-6 0.518228,0.06771 0.683594,0.203125 0.165363,0.135419 0.248045,0.319664 0.248047,0.552734 -2e-6,0.166669 -0.04753,0.307945 -0.142578,0.423829 -0.09375,0.115887 -0.224611,0.194663 -0.392578,0.236328 0.190102,0.04427 0.337888,0.13086 0.443359,0.259765 0.106769,0.128908 0.160154,0.28646 0.160156,0.472657 -2e-6,0.282552 -0.08659,0.499349 -0.259765,0.65039 -0.171877,0.151042 -0.418622,0.226563 -0.740235,0.226563 -0.321615,0 -0.569011,-0.07552 -0.742187,-0.226563 -0.171875,-0.151041 -0.257813,-0.367838 -0.257813,-0.65039 0,-0.186197 0.05338,-0.343749 0.160157,-0.472657 0.10677,-0.128905 0.255207,-0.215493 0.445312,-0.259765 m -0.144531,-0.623047 c -1e-6,0.151043 0.04687,0.268882 0.140625,0.353515 0.09505,0.08464 0.227863,0.126955 0.398437,0.126954 0.16927,10e-7 0.301431,-0.04232 0.396485,-0.126954 0.09635,-0.08463 0.144529,-0.202472 0.144531,-0.353515 -2e-6,-0.15104 -0.04818,-0.268878 -0.144531,-0.353516 -0.09505,-0.08463 -0.227215,-0.12695 -0.396485,-0.126953 -0.170574,3e-6 -0.303386,0.04232 -0.398437,0.126953 -0.09375,0.08464 -0.140626,0.202476 -0.140625,0.353516"
         style=""
         id="path3030" />
      <path
         d="m 35.068359,11.09375 c -0.203126,3e-6 -0.35612,0.100263 -0.458984,0.300781 -0.101563,0.199221 -0.152344,0.499351 -0.152344,0.900391 0,0.399741 0.05078,0.69987 0.152344,0.900391 0.102864,0.199219 0.255858,0.298828 0.458984,0.298828 0.204426,0 0.357421,-0.09961 0.458985,-0.298828 0.102862,-0.200521 0.154295,-0.50065 0.154297,-0.900391 -2e-6,-0.40104 -0.05143,-0.70117 -0.154297,-0.900391 -0.101564,-0.200518 -0.254559,-0.300778 -0.458985,-0.300781 m 0,-0.3125 c 0.326822,3e-6 0.57617,0.12956 0.748047,0.388672 0.173175,0.257815 0.259764,0.632814 0.259766,1.125 -2e-6,0.490886 -0.08659,0.865886 -0.259766,1.125 -0.171877,0.257812 -0.421225,0.386719 -0.748047,0.386719 -0.326823,0 -0.576823,-0.128907 -0.75,-0.386719 -0.171875,-0.259114 -0.257812,-0.634114 -0.257812,-1.125 0,-0.492186 0.08594,-0.867185 0.257812,-1.125 0.173177,-0.259112 0.423177,-0.388669 0.75,-0.388672"
         style=""
         id="path3032" />
      <path
         d="m 39.251953,12.466797 c -0.113284,1e-6 -0.202477,0.04818 -0.267578,0.144531 -0.06381,0.09635 -0.09571,0.23047 -0.0957,0.402344 -3e-6,0.169271 0.0319,0.302735 0.0957,0.400391 0.0651,0.09635 0.154294,0.144531 0.267578,0.144531 0.110674,0 0.197914,-0.04818 0.261719,-0.144531 0.0651,-0.09766 0.09765,-0.23112 0.09766,-0.400391 -3e-6,-0.170572 -0.03256,-0.304036 -0.09766,-0.400391 -0.06381,-0.09766 -0.151045,-0.146483 -0.261719,-0.146484 m 0,-0.248047 c 0.205726,2e-6 0.369137,0.07162 0.490234,0.214844 0.121091,0.14323 0.181638,0.336589 0.181641,0.580078 -3e-6,0.24349 -0.0612,0.436849 -0.183594,0.580078 -0.121097,0.141927 -0.283857,0.212891 -0.488281,0.212891 -0.208336,0 -0.373049,-0.07096 -0.494141,-0.212891 -0.121096,-0.143229 -0.181642,-0.336588 -0.18164,-0.580078 -2e-6,-0.244791 0.06054,-0.43815 0.18164,-0.580078 0.122394,-0.143228 0.287107,-0.214842 0.494141,-0.214844 m -2.015625,-1.189453 c -0.11198,3e-6 -0.200521,0.04883 -0.265625,0.146484 -0.0638,0.09636 -0.0957,0.229169 -0.0957,0.398438 -10e-7,0.171877 0.0319,0.305991 0.0957,0.402344 0.0638,0.09635 0.152343,0.144532 0.265625,0.144531 0.11328,1e-6 0.201822,-0.04818 0.265625,-0.144531 0.0651,-0.09635 0.09766,-0.230467 0.09766,-0.402344 -10e-7,-0.167967 -0.03255,-0.300779 -0.09766,-0.398438 -0.06511,-0.09765 -0.153647,-0.146481 -0.265625,-0.146484 M 39,10.78125 l 0.3125,0 -1.824219,3.025391 -0.3125,0 L 39,10.78125 m -1.763672,0 c 0.205728,3e-6 0.369791,0.07162 0.492188,0.214844 0.122394,0.141929 0.183592,0.334638 0.183593,0.578125 -10e-7,0.246095 -0.0612,0.440106 -0.183593,0.582031 -0.121095,0.141929 -0.285158,0.212892 -0.492188,0.212891 -0.207032,10e-7 -0.371094,-0.07096 -0.492187,-0.212891 -0.119792,-0.143227 -0.179688,-0.337238 -0.179688,-0.582031 0,-0.242185 0.06055,-0.434893 0.181641,-0.578125 0.121093,-0.143227 0.284504,-0.214841 0.490234,-0.214844"
         style=""
         id="path3034" />
    </g>
    <path
       style="fill:none;stroke:#000000;stroke-width:1.12439275px;stroke-linecap:butt;stroke-linejoin:miter;stroke-opacity:1"
       d="m 15,40 10,0 0,10 5,0 -10,10 -10,-10 5,0 c -0.01314,-2.8e-4 0,-10 0,-10 z"
       id="path2993-31"
       inkscape:connector-curvature="0"
       transform="matrix(0,0.88784243,-0.89089825,0,129.77197,995.81972)"
       sodipodi:nodetypes="cccccccc" />
    <g
       transform="matrix(1.9797739,0,0,1.9729832,15.376278,972.26028)"
       style="font-size:4px;font-style:normal;font-variant:normal;font-weight:normal;font-stretch:normal;text-align:start;line-height:125%;letter-spacing:0px;word-spacing:0px;writing-mode:lr-tb;text-anchor:start;fill:#000000;fill-opacity:1;stroke:none;font-family:Sans;-inkscape-font-specification:Sans"
       id="text4097-9-94-8">
      <path
         d="m 32.570312,12.134766 c -0.177084,10e-7 -0.317709,0.06055 -0.421875,0.18164 -0.102865,0.121095 -0.154297,0.287111 -0.154296,0.498047 -10e-7,0.209636 0.05143,0.375652 0.154296,0.498047 0.104166,0.121094 0.244791,0.181641 0.421875,0.181641 0.177082,0 0.317056,-0.06055 0.419922,-0.181641 0.104165,-0.122395 0.156248,-0.288411 0.15625,-0.498047 -2e-6,-0.210936 -0.05208,-0.376952 -0.15625,-0.498047 -0.102866,-0.121092 -0.24284,-0.181639 -0.419922,-0.18164 m 0.783204,-1.236328 0,0.359375 c -0.09896,-0.04687 -0.199221,-0.08268 -0.300782,-0.107422 -0.100262,-0.02474 -0.199871,-0.03711 -0.298828,-0.03711 -0.260418,3e-6 -0.459636,0.08789 -0.597656,0.263672 -0.13672,0.175784 -0.214844,0.441408 -0.234375,0.796875 0.07682,-0.113279 0.173176,-0.199868 0.289062,-0.259765 0.115885,-0.0612 0.243489,-0.0918 0.382813,-0.0918 0.292967,2e-6 0.524087,0.08919 0.693359,0.267578 0.170571,0.177085 0.255857,0.418621 0.25586,0.724609 -3e-6,0.29948 -0.08854,0.539714 -0.265625,0.720703 -0.177085,0.18099 -0.412762,0.271485 -0.707032,0.271485 -0.33724,0 -0.595052,-0.128907 -0.773437,-0.386719 -0.178386,-0.259114 -0.267578,-0.634114 -0.267578,-1.125 0,-0.460936 0.109374,-0.828123 0.328125,-1.101563 0.218749,-0.274736 0.512369,-0.412106 0.880859,-0.412109 0.09896,3e-6 0.198566,0.0098 0.298828,0.0293 0.101561,0.01953 0.20703,0.04883 0.316407,0.08789"
         style=""
         id="path3023" />
      <path
         d="m 35.068359,11.09375 c -0.203126,3e-6 -0.35612,0.100263 -0.458984,0.300781 -0.101563,0.199221 -0.152344,0.499351 -0.152344,0.900391 0,0.399741 0.05078,0.69987 0.152344,0.900391 0.102864,0.199219 0.255858,0.298828 0.458984,0.298828 0.204426,0 0.357421,-0.09961 0.458985,-0.298828 0.102862,-0.200521 0.154295,-0.50065 0.154297,-0.900391 -2e-6,-0.40104 -0.05143,-0.70117 -0.154297,-0.900391 -0.101564,-0.200518 -0.254559,-0.300778 -0.458985,-0.300781 m 0,-0.3125 c 0.326822,3e-6 0.57617,0.12956 0.748047,0.388672 0.173175,0.257815 0.259764,0.632814 0.259766,1.125 -2e-6,0.490886 -0.08659,0.865886 -0.259766,1.125 -0.171877,0.257812 -0.421225,0.386719 -0.748047,0.386719 -0.326823,0 -0.576823,-0.128907 -0.75,-0.386719 -0.171875,-0.259114 -0.257812,-0.634114 -0.257812,-1.125 0,-0.492186 0.08594,-0.867185 0.257812,-1.125 0.173177,-0.259112 0.423177,-0.388669 0.75,-0.388672"
         style=""
         id="path3025" />
      <path
         d="m 39.251953,12.466797 c -0.113284,1e-6 -0.202477,0.04818 -0.267578,0.144531 -0.06381,0.09635 -0.09571,0.23047 -0.0957,0.402344 -3e-6,0.169271 0.0319,0.302735 0.0957,0.400391 0.0651,0.09635 0.154294,0.144531 0.267578,0.144531 0.110674,0 0.197914,-0.04818 0.261719,-0.144531 0.0651,-0.09766 0.09765,-0.23112 0.09766,-0.400391 -3e-6,-0.170572 -0.03256,-0.304036 -0.09766,-0.400391 -0.06381,-0.09766 -0.151045,-0.146483 -0.261719,-0.146484 m 0,-0.248047 c 0.205726,2e-6 0.369137,0.07162 0.490234,0.214844 0.121091,0.14323 0.181638,0.336589 0.181641,0.580078 -3e-6,0.24349 -0.0612,0.436849 -0.183594,0.580078 -0.121097,0.141927 -0.283857,0.212891 -0.488281,0.212891 -0.208336,0 -0.373049,-0.07096 -0.494141,-0.212891 -0.121096,-0.143229 -0.181642,-0.336588 -0.18164,-0.580078 -2e-6,-0.244791 0.06054,-0.43815 0.18164,-0.580078 0.122394,-0.143228 0.287107,-0.214842 0.494141,-0.214844 m -2.015625,-1.189453 c -0.11198,3e-6 -0.200521,0.04883 -0.265625,0.146484 -0.0638,0.09636 -0.0957,0.229169 -0.0957,0.398438 -10e-7,0.171877 0.0319,0.305991 0.0957,0.402344 0.0638,0.09635 0.152343,0.144532 0.265625,0.144531 0.11328,1e-6 0.201822,-0.04818 0.265625,-0.144531 0.0651,-0.09635 0.09766,-0.230467 0.09766,-0.402344 -10e-7,-0.167967 -0.03255,-0.300779 -0.09766,-0.398438 -0.06511,-0.09765 -0.153647,-0.146481 -0.265625,-0.146484 M 39,10.78125 l 0.3125,0 -1.824219,3.025391 -0.3125,0 L 39,10.78125 m -1.763672,0 c 0.205728,3e-6 0.369791,0.07162 0.492188,0.214844 0.122394,0.141929 0.183592,0.334638 0.183593,0.578125 -10e-7,0.246095 -0.0612,0.440106 -0.183593,0.582031 -0.121095,0.141929 -0.285158,0.212892 -0.492188,0.212891 -0.207032,10e-7 -0.371094,-0.07096 -0.492187,-0.212891 -0.119792,-0.143227 -0.179688,-0.337238 -0.179688,-0.582031 0,-0.242185 0.06055,-0.434893 0.181641,-0.578125 0.121093,-0.143227 0.284504,-0.214841 0.490234,-0.214844"
         style=""
         id="path3027" />
    </g>
    <g
       transform="matrix(1.9797739,0,0,1.9729832,16.394092,1004.1451)"
       style="font-size:4px;font-style:normal;font-variant:normal;font-weight:normal;font-stretch:normal;text-align:start;line-height:125%;letter-spacing:0px;word-spacing:0px;writing-mode:lr-tb;text-anchor:start;fill:#000000;fill-opacity:1;stroke:none;font-family:Sans;-inkscape-font-specification:Sans"
       id="text4097-9-94-6">
      <path
         d="m 32.761719,11.177734 -0.996094,1.556641 0.996094,0 0,-1.556641 m -0.103516,-0.34375 0.496094,0 0,1.900391 0.416015,0 0,0.328125 -0.416015,0 0,0.6875 -0.392578,0 0,-0.6875 -1.316407,0 0,-0.380859 1.212891,-1.847657"
         style=""
         id="path3016" />
      <path
         d="m 35.068359,11.09375 c -0.203126,3e-6 -0.35612,0.100263 -0.458984,0.300781 -0.101563,0.199221 -0.152344,0.499351 -0.152344,0.900391 0,0.399741 0.05078,0.69987 0.152344,0.900391 0.102864,0.199219 0.255858,0.298828 0.458984,0.298828 0.204426,0 0.357421,-0.09961 0.458985,-0.298828 0.102862,-0.200521 0.154295,-0.50065 0.154297,-0.900391 -2e-6,-0.40104 -0.05143,-0.70117 -0.154297,-0.900391 -0.101564,-0.200518 -0.254559,-0.300778 -0.458985,-0.300781 m 0,-0.3125 c 0.326822,3e-6 0.57617,0.12956 0.748047,0.388672 0.173175,0.257815 0.259764,0.632814 0.259766,1.125 -2e-6,0.490886 -0.08659,0.865886 -0.259766,1.125 -0.171877,0.257812 -0.421225,0.386719 -0.748047,0.386719 -0.326823,0 -0.576823,-0.128907 -0.75,-0.386719 -0.171875,-0.259114 -0.257812,-0.634114 -0.257812,-1.125 0,-0.492186 0.08594,-0.867185 0.257812,-1.125 0.173177,-0.259112 0.423177,-0.388669 0.75,-0.388672"
         style=""
         id="path3018" />
      <path
         d="m 39.251953,12.466797 c -0.113284,1e-6 -0.202477,0.04818 -0.267578,0.144531 -0.06381,0.09635 -0.09571,0.23047 -0.0957,0.402344 -3e-6,0.169271 0.0319,0.302735 0.0957,0.400391 0.0651,0.09635 0.154294,0.144531 0.267578,0.144531 0.110674,0 0.197914,-0.04818 0.261719,-0.144531 0.0651,-0.09766 0.09765,-0.23112 0.09766,-0.400391 -3e-6,-0.170572 -0.03256,-0.304036 -0.09766,-0.400391 -0.06381,-0.09766 -0.151045,-0.146483 -0.261719,-0.146484 m 0,-0.248047 c 0.205726,2e-6 0.369137,0.07162 0.490234,0.214844 0.121091,0.14323 0.181638,0.336589 0.181641,0.580078 -3e-6,0.24349 -0.0612,0.436849 -0.183594,0.580078 -0.121097,0.141927 -0.283857,0.212891 -0.488281,0.212891 -0.208336,0 -0.373049,-0.07096 -0.494141,-0.212891 -0.121096,-0.143229 -0.181642,-0.336588 -0.18164,-0.580078 -2e-6,-0.244791 0.06054,-0.43815 0.18164,-0.580078 0.122394,-0.143228 0.287107,-0.214842 0.494141,-0.214844 m -2.015625,-1.189453 c -0.11198,3e-6 -0.200521,0.04883 -0.265625,0.146484 -0.0638,0.09636 -0.0957,0.229169 -0.0957,0.398438 -10e-7,0.171877 0.0319,0.305991 0.0957,0.402344 0.0638,0.09635 0.152343,0.144532 0.265625,0.144531 0.11328,1e-6 0.201822,-0.04818 0.265625,-0.144531 0.0651,-0.09635 0.09766,-0.230467 0.09766,-0.402344 -10e-7,-0.167967 -0.03255,-0.300779 -0.09766,-0.398438 -0.06511,-0.09765 -0.153647,-0.146481 -0.265625,-0.146484 M 39,10.78125 l 0.3125,0 -1.824219,3.025391 -0.3125,0 L 39,10.78125 m -1.763672,0 c 0.205728,3e-6 0.369791,0.07162 0.492188,0.214844 0.122394,0.141929 0.183592,0.334638 0.183593,0.578125 -10e-7,0.246095 -0.0612,0.440106 -0.183593,0.582031 -0.121095,0.141929 -0.285158,0.212892 -0.492188,0.212891 -0.207032,10e-7 -0.371094,-0.07096 -0.492187,-0.212891 -0.119792,-0.143227 -0.179688,-0.337238 -0.179688,-0.582031 0,-0.242185 0.06055,-0.434893 0.181641,-0.578125 0.121093,-0.143227 0.284504,-0.214841 0.490234,-0.214844"
         style=""
         id="path3020" />
    </g>
  </g>
</svg>
